<?xml version="1.0" encoding="UTF-8"?>\n<mxfile host="app.diagrams.net" modified="2024-02-22T12:00:00.000Z" agent="Mozilla/5.0" version="21.1.2" type="device">\n  <diagram name="Secret Trees Template" id="template-main">\n    <mxGraphModel dx="1422" dy="798" grid="1" gridSize="10" guides="1" tooltips="1" connect="1" arrows="1" fold="1" page="1" pageScale="1" pageWidth="827" pageHeight="1169" math="0" shadow="0">\n      <root>\n        <mxCell id="0"/>\n        <mxCell id="1" parent="0"/>\n        <mxCell id="2" value="Project Overview" style="rounded=1;whiteSpace=wrap;html=1;fontSize=16;glass=0;strokeWidth=1;shadow=0;" vertex="1" parent="1">\n          <mxGeometry x="320" y="190" width="120" height="60" as="geometry"/>\n        </mxCell>\n      </root>\n    </mxGraphModel>\n  </diagram>\n</mxfile>
